<mxfile host="app.diagrams.net" agent="Mozilla/5.0 (Windows NT 10.0; Win64; x64) AppleWebKit/537.36 (KHTML, like Gecko) Chrome/128.0.0.0 Safari/537.36" version="24.7.10">
  <diagram name="Page-1" id="Ibu_ShTeSwuRrmiSXFoi">
    <mxGraphModel dx="1316" dy="737" grid="1" gridSize="5" guides="1" tooltips="1" connect="1" arrows="1" fold="1" page="1" pageScale="1" pageWidth="850" pageHeight="1100" math="0" shadow="0">
      <root>
        <mxCell id="0" />
        <mxCell id="1" parent="0" />
        <mxCell id="kRHaIRPuTOjawNohXD7s-1" value="Login Page" style="rounded=0;whiteSpace=wrap;html=1;fontSize=16;" parent="1" vertex="1">
          <mxGeometry x="145" y="60" width="120" height="60" as="geometry" />
        </mxCell>
        <mxCell id="kRHaIRPuTOjawNohXD7s-2" value="Sign Up Page" style="rounded=0;whiteSpace=wrap;html=1;fontSize=16;" parent="1" vertex="1">
          <mxGeometry x="395" y="60" width="120" height="60" as="geometry" />
        </mxCell>
        <mxCell id="kRHaIRPuTOjawNohXD7s-3" value="" style="endArrow=classic;html=1;rounded=0;exitX=1;exitY=0.25;exitDx=0;exitDy=0;entryX=0;entryY=0.25;entryDx=0;entryDy=0;" parent="1" source="kRHaIRPuTOjawNohXD7s-1" target="kRHaIRPuTOjawNohXD7s-2" edge="1">
          <mxGeometry width="50" height="50" relative="1" as="geometry">
            <mxPoint x="280" y="80" as="sourcePoint" />
            <mxPoint x="380" y="80" as="targetPoint" />
            <Array as="points" />
          </mxGeometry>
        </mxCell>
        <mxCell id="kRHaIRPuTOjawNohXD7s-4" value="" style="endArrow=classic;html=1;rounded=0;exitX=0;exitY=0.75;exitDx=0;exitDy=0;entryX=1;entryY=0.75;entryDx=0;entryDy=0;" parent="1" source="kRHaIRPuTOjawNohXD7s-2" target="kRHaIRPuTOjawNohXD7s-1" edge="1">
          <mxGeometry width="50" height="50" relative="1" as="geometry">
            <mxPoint x="380" y="100" as="sourcePoint" />
            <mxPoint x="280" y="100" as="targetPoint" />
          </mxGeometry>
        </mxCell>
        <mxCell id="kRHaIRPuTOjawNohXD7s-5" value="Home Page" style="rounded=0;whiteSpace=wrap;html=1;fontSize=16;" parent="1" vertex="1">
          <mxGeometry x="145" y="160" width="120" height="60" as="geometry" />
        </mxCell>
        <mxCell id="kRHaIRPuTOjawNohXD7s-6" value="NavBar" style="ellipse;whiteSpace=wrap;html=1;fontSize=16;" parent="1" vertex="1">
          <mxGeometry x="335" y="167.5" width="90" height="45" as="geometry" />
        </mxCell>
        <mxCell id="kRHaIRPuTOjawNohXD7s-7" value="" style="endArrow=classic;html=1;rounded=0;entryX=0.5;entryY=0;entryDx=0;entryDy=0;exitX=0.5;exitY=1;exitDx=0;exitDy=0;" parent="1" source="kRHaIRPuTOjawNohXD7s-1" target="kRHaIRPuTOjawNohXD7s-5" edge="1">
          <mxGeometry width="50" height="50" relative="1" as="geometry">
            <mxPoint x="200" y="125" as="sourcePoint" />
            <mxPoint x="450" y="355" as="targetPoint" />
          </mxGeometry>
        </mxCell>
        <mxCell id="kRHaIRPuTOjawNohXD7s-8" value="" style="endArrow=classic;html=1;rounded=0;exitX=1;exitY=0.5;exitDx=0;exitDy=0;entryX=0;entryY=0.5;entryDx=0;entryDy=0;" parent="1" source="kRHaIRPuTOjawNohXD7s-5" target="kRHaIRPuTOjawNohXD7s-6" edge="1">
          <mxGeometry width="50" height="50" relative="1" as="geometry">
            <mxPoint x="400" y="405" as="sourcePoint" />
            <mxPoint x="450" y="355" as="targetPoint" />
          </mxGeometry>
        </mxCell>
        <mxCell id="kRHaIRPuTOjawNohXD7s-11" value="Log Workout" style="rounded=0;whiteSpace=wrap;html=1;labelBackgroundColor=#FF3333;textShadow=0;fontColor=#FFFFFF;" parent="1" vertex="1">
          <mxGeometry x="40" y="300" width="100" height="20" as="geometry" />
        </mxCell>
        <mxCell id="kRHaIRPuTOjawNohXD7s-12" value="Goals" style="rounded=0;whiteSpace=wrap;html=1;labelBackgroundColor=#CC6600;fontColor=#FFFFFF;" parent="1" vertex="1">
          <mxGeometry x="155" y="300" width="100" height="20" as="geometry" />
        </mxCell>
        <mxCell id="kRHaIRPuTOjawNohXD7s-13" value="Progress" style="rounded=0;whiteSpace=wrap;html=1;fontColor=#FFFFFF;labelBackgroundColor=#666600;" parent="1" vertex="1">
          <mxGeometry x="270" y="300" width="100" height="20" as="geometry" />
        </mxCell>
        <mxCell id="kRHaIRPuTOjawNohXD7s-14" value="Settings" style="rounded=0;whiteSpace=wrap;html=1;fontColor=#FFFFFF;labelBackgroundColor=#B266FF;" parent="1" vertex="1">
          <mxGeometry x="615" y="300" width="100" height="20" as="geometry" />
        </mxCell>
        <mxCell id="kRHaIRPuTOjawNohXD7s-15" value="FastFit" style="rounded=0;whiteSpace=wrap;html=1;labelBackgroundColor=#4D9900;fontColor=#FFFFFF;" parent="1" vertex="1">
          <mxGeometry x="385" y="300" width="100" height="20" as="geometry" />
        </mxCell>
        <mxCell id="kRHaIRPuTOjawNohXD7s-16" value="Friends" style="rounded=0;whiteSpace=wrap;html=1;fontColor=#FFFFFF;labelBackgroundColor=#007FFF;" parent="1" vertex="1">
          <mxGeometry x="500" y="300" width="100" height="20" as="geometry" />
        </mxCell>
        <mxCell id="kRHaIRPuTOjawNohXD7s-17" value="Log Out" style="rounded=0;whiteSpace=wrap;html=1;fontColor=#FFFFFF;labelBackgroundColor=#FF99CC;" parent="1" vertex="1">
          <mxGeometry x="730" y="300" width="100" height="20" as="geometry" />
        </mxCell>
        <mxCell id="kRHaIRPuTOjawNohXD7s-19" value="" style="endArrow=classic;html=1;rounded=0;exitX=0.5;exitY=1;exitDx=0;exitDy=0;entryX=1;entryY=0;entryDx=0;entryDy=0;" parent="1" source="kRHaIRPuTOjawNohXD7s-6" target="kRHaIRPuTOjawNohXD7s-11" edge="1">
          <mxGeometry width="50" height="50" relative="1" as="geometry">
            <mxPoint x="400" y="405" as="sourcePoint" />
            <mxPoint x="450" y="355" as="targetPoint" />
          </mxGeometry>
        </mxCell>
        <mxCell id="kRHaIRPuTOjawNohXD7s-20" value="" style="endArrow=classic;html=1;rounded=0;exitX=0.5;exitY=1;exitDx=0;exitDy=0;entryX=1;entryY=0;entryDx=0;entryDy=0;" parent="1" source="kRHaIRPuTOjawNohXD7s-6" target="kRHaIRPuTOjawNohXD7s-12" edge="1">
          <mxGeometry width="50" height="50" relative="1" as="geometry">
            <mxPoint x="400" y="405" as="sourcePoint" />
            <mxPoint x="450" y="355" as="targetPoint" />
          </mxGeometry>
        </mxCell>
        <mxCell id="kRHaIRPuTOjawNohXD7s-21" value="" style="endArrow=classic;html=1;rounded=0;entryX=0.75;entryY=0;entryDx=0;entryDy=0;exitX=0.5;exitY=1;exitDx=0;exitDy=0;" parent="1" source="kRHaIRPuTOjawNohXD7s-6" target="kRHaIRPuTOjawNohXD7s-13" edge="1">
          <mxGeometry width="50" height="50" relative="1" as="geometry">
            <mxPoint x="575" y="215" as="sourcePoint" />
            <mxPoint x="450" y="355" as="targetPoint" />
          </mxGeometry>
        </mxCell>
        <mxCell id="kRHaIRPuTOjawNohXD7s-22" value="" style="endArrow=classic;html=1;rounded=0;exitX=0.5;exitY=1;exitDx=0;exitDy=0;entryX=0.25;entryY=0;entryDx=0;entryDy=0;" parent="1" source="kRHaIRPuTOjawNohXD7s-6" target="kRHaIRPuTOjawNohXD7s-15" edge="1">
          <mxGeometry width="50" height="50" relative="1" as="geometry">
            <mxPoint x="400" y="405" as="sourcePoint" />
            <mxPoint x="450" y="355" as="targetPoint" />
          </mxGeometry>
        </mxCell>
        <mxCell id="kRHaIRPuTOjawNohXD7s-23" value="" style="endArrow=classic;html=1;rounded=0;exitX=0.5;exitY=1;exitDx=0;exitDy=0;entryX=0;entryY=0;entryDx=0;entryDy=0;" parent="1" source="kRHaIRPuTOjawNohXD7s-6" target="kRHaIRPuTOjawNohXD7s-17" edge="1">
          <mxGeometry width="50" height="50" relative="1" as="geometry">
            <mxPoint x="400" y="405" as="sourcePoint" />
            <mxPoint x="450" y="355" as="targetPoint" />
          </mxGeometry>
        </mxCell>
        <mxCell id="kRHaIRPuTOjawNohXD7s-24" value="" style="endArrow=classic;html=1;rounded=0;exitX=0.5;exitY=1;exitDx=0;exitDy=0;entryX=0;entryY=0;entryDx=0;entryDy=0;" parent="1" source="kRHaIRPuTOjawNohXD7s-6" target="kRHaIRPuTOjawNohXD7s-14" edge="1">
          <mxGeometry width="50" height="50" relative="1" as="geometry">
            <mxPoint x="400" y="405" as="sourcePoint" />
            <mxPoint x="450" y="355" as="targetPoint" />
          </mxGeometry>
        </mxCell>
        <mxCell id="kRHaIRPuTOjawNohXD7s-25" value="" style="endArrow=classic;html=1;rounded=0;exitX=0.5;exitY=1;exitDx=0;exitDy=0;entryX=0;entryY=0;entryDx=0;entryDy=0;" parent="1" source="kRHaIRPuTOjawNohXD7s-6" target="kRHaIRPuTOjawNohXD7s-16" edge="1">
          <mxGeometry width="50" height="50" relative="1" as="geometry">
            <mxPoint x="400" y="405" as="sourcePoint" />
            <mxPoint x="450" y="355" as="targetPoint" />
          </mxGeometry>
        </mxCell>
        <mxCell id="kRHaIRPuTOjawNohXD7s-28" value="Dropdown menu with &quot;Add Category&quot; Option" style="rounded=1;whiteSpace=wrap;html=1;labelBackgroundColor=#FF3333;fontColor=#FFFFFF;" parent="1" vertex="1">
          <mxGeometry x="40" y="340" width="100" height="60" as="geometry" />
        </mxCell>
        <mxCell id="kRHaIRPuTOjawNohXD7s-29" value="" style="endArrow=classic;html=1;rounded=0;exitX=0.5;exitY=0;exitDx=0;exitDy=0;entryX=0.5;entryY=0;entryDx=0;entryDy=0;" parent="1" source="kRHaIRPuTOjawNohXD7s-17" target="kRHaIRPuTOjawNohXD7s-1" edge="1">
          <mxGeometry width="50" height="50" relative="1" as="geometry">
            <mxPoint x="400" y="405" as="sourcePoint" />
            <mxPoint x="450" y="355" as="targetPoint" />
            <Array as="points">
              <mxPoint x="780" y="30" />
              <mxPoint x="205" y="25" />
            </Array>
          </mxGeometry>
        </mxCell>
        <mxCell id="kRHaIRPuTOjawNohXD7s-31" value="+" style="ellipse;whiteSpace=wrap;html=1;aspect=fixed;fontSize=32;fontColor=#FFFFFF;labelBackgroundColor=#CC6600;" parent="1" vertex="1">
          <mxGeometry x="100" y="415" width="40" height="40" as="geometry" />
        </mxCell>
        <mxCell id="kRHaIRPuTOjawNohXD7s-32" value="-" style="ellipse;whiteSpace=wrap;html=1;aspect=fixed;fontSize=32;fontColor=#FFFFFF;labelBackgroundColor=#CC6600;" parent="1" vertex="1">
          <mxGeometry x="145" y="430" width="40" height="40" as="geometry" />
        </mxCell>
        <mxCell id="kRHaIRPuTOjawNohXD7s-33" value="X" style="ellipse;whiteSpace=wrap;html=1;aspect=fixed;fontSize=24;fontColor=#FFFFFF;labelBackgroundColor=#CC6600;" parent="1" vertex="1">
          <mxGeometry x="190" y="445" width="40" height="40" as="geometry" />
        </mxCell>
        <mxCell id="kRHaIRPuTOjawNohXD7s-34" value="Add Goal, Remove Goal, Cancel" style="rounded=1;whiteSpace=wrap;html=1;labelBackgroundColor=#CC6600;fontColor=#FFFFFF;" parent="1" vertex="1">
          <mxGeometry x="155" y="340" width="100" height="45" as="geometry" />
        </mxCell>
        <mxCell id="kRHaIRPuTOjawNohXD7s-35" value="" style="endArrow=classic;html=1;rounded=0;exitX=0.25;exitY=1;exitDx=0;exitDy=0;entryX=1;entryY=0;entryDx=0;entryDy=0;" parent="1" source="kRHaIRPuTOjawNohXD7s-34" target="kRHaIRPuTOjawNohXD7s-31" edge="1">
          <mxGeometry width="50" height="50" relative="1" as="geometry">
            <mxPoint x="400" y="405" as="sourcePoint" />
            <mxPoint x="450" y="355" as="targetPoint" />
          </mxGeometry>
        </mxCell>
        <mxCell id="kRHaIRPuTOjawNohXD7s-36" value="" style="endArrow=classic;html=1;rounded=0;exitX=0.5;exitY=1;exitDx=0;exitDy=0;entryX=0.5;entryY=0;entryDx=0;entryDy=0;" parent="1" source="kRHaIRPuTOjawNohXD7s-34" target="kRHaIRPuTOjawNohXD7s-32" edge="1">
          <mxGeometry width="50" height="50" relative="1" as="geometry">
            <mxPoint x="400" y="405" as="sourcePoint" />
            <mxPoint x="450" y="355" as="targetPoint" />
          </mxGeometry>
        </mxCell>
        <mxCell id="kRHaIRPuTOjawNohXD7s-37" value="" style="endArrow=classic;html=1;rounded=0;exitX=0.75;exitY=1;exitDx=0;exitDy=0;entryX=0.5;entryY=0;entryDx=0;entryDy=0;" parent="1" source="kRHaIRPuTOjawNohXD7s-34" target="kRHaIRPuTOjawNohXD7s-33" edge="1">
          <mxGeometry width="50" height="50" relative="1" as="geometry">
            <mxPoint x="400" y="405" as="sourcePoint" />
            <mxPoint x="450" y="355" as="targetPoint" />
          </mxGeometry>
        </mxCell>
        <mxCell id="kRHaIRPuTOjawNohXD7s-38" value="" style="endArrow=classic;html=1;rounded=0;entryX=0.5;entryY=0;entryDx=0;entryDy=0;exitX=0.5;exitY=1;exitDx=0;exitDy=0;" parent="1" source="kRHaIRPuTOjawNohXD7s-12" target="kRHaIRPuTOjawNohXD7s-34" edge="1">
          <mxGeometry width="50" height="50" relative="1" as="geometry">
            <mxPoint x="290" y="345" as="sourcePoint" />
            <mxPoint x="450" y="355" as="targetPoint" />
          </mxGeometry>
        </mxCell>
        <mxCell id="kRHaIRPuTOjawNohXD7s-39" value="Weekly Goals with progress bar showing completion %" style="rounded=1;whiteSpace=wrap;html=1;fontColor=#FFFFFF;labelBackgroundColor=#666600;" parent="1" vertex="1">
          <mxGeometry x="280" y="340" width="100" height="70" as="geometry" />
        </mxCell>
        <mxCell id="kRHaIRPuTOjawNohXD7s-41" value="Time until next play: (timer), Leaderboard,&amp;nbsp;&lt;span style=&quot;&quot;&gt;Target Body Area&lt;/span&gt;" style="rounded=1;whiteSpace=wrap;html=1;labelBackgroundColor=#4D9900;fontColor=#FFFFFF;" parent="1" vertex="1">
          <mxGeometry x="400" y="340" width="120" height="65" as="geometry" />
        </mxCell>
        <mxCell id="kRHaIRPuTOjawNohXD7s-42" value="Add Friend, Remove Friend, Message Friend" style="rounded=1;whiteSpace=wrap;html=1;fontColor=#FFFFFF;labelBackgroundColor=#007FFF;" parent="1" vertex="1">
          <mxGeometry x="535" y="340" width="100" height="45" as="geometry" />
        </mxCell>
        <mxCell id="kRHaIRPuTOjawNohXD7s-44" value="User Profile, Preferences, Updates, Delete Account" style="rounded=1;whiteSpace=wrap;html=1;fontColor=#FFFFFF;labelBackgroundColor=#B266FF;" parent="1" vertex="1">
          <mxGeometry x="650" y="340" width="105" height="65" as="geometry" />
        </mxCell>
        <mxCell id="kRHaIRPuTOjawNohXD7s-45" value="" style="endArrow=classic;html=1;rounded=0;exitX=0.5;exitY=1;exitDx=0;exitDy=0;entryX=0.5;entryY=0;entryDx=0;entryDy=0;" parent="1" source="kRHaIRPuTOjawNohXD7s-14" target="kRHaIRPuTOjawNohXD7s-44" edge="1">
          <mxGeometry width="50" height="50" relative="1" as="geometry">
            <mxPoint x="400" y="405" as="sourcePoint" />
            <mxPoint x="450" y="355" as="targetPoint" />
          </mxGeometry>
        </mxCell>
        <mxCell id="kRHaIRPuTOjawNohXD7s-46" value="" style="endArrow=classic;html=1;rounded=0;exitX=0.5;exitY=1;exitDx=0;exitDy=0;entryX=0.5;entryY=0;entryDx=0;entryDy=0;" parent="1" source="kRHaIRPuTOjawNohXD7s-15" target="kRHaIRPuTOjawNohXD7s-41" edge="1">
          <mxGeometry width="50" height="50" relative="1" as="geometry">
            <mxPoint x="400" y="405" as="sourcePoint" />
            <mxPoint x="450" y="355" as="targetPoint" />
          </mxGeometry>
        </mxCell>
        <mxCell id="kRHaIRPuTOjawNohXD7s-47" value="" style="endArrow=classic;html=1;rounded=0;exitX=0.5;exitY=1;exitDx=0;exitDy=0;entryX=0.5;entryY=0;entryDx=0;entryDy=0;" parent="1" source="kRHaIRPuTOjawNohXD7s-16" target="kRHaIRPuTOjawNohXD7s-42" edge="1">
          <mxGeometry width="50" height="50" relative="1" as="geometry">
            <mxPoint x="400" y="405" as="sourcePoint" />
            <mxPoint x="450" y="355" as="targetPoint" />
          </mxGeometry>
        </mxCell>
        <mxCell id="kRHaIRPuTOjawNohXD7s-48" value="" style="endArrow=classic;html=1;rounded=0;exitX=0.5;exitY=1;exitDx=0;exitDy=0;entryX=0.5;entryY=0;entryDx=0;entryDy=0;" parent="1" source="kRHaIRPuTOjawNohXD7s-13" target="kRHaIRPuTOjawNohXD7s-39" edge="1">
          <mxGeometry width="50" height="50" relative="1" as="geometry">
            <mxPoint x="400" y="405" as="sourcePoint" />
            <mxPoint x="450" y="355" as="targetPoint" />
          </mxGeometry>
        </mxCell>
        <mxCell id="kRHaIRPuTOjawNohXD7s-49" value="" style="endArrow=classic;html=1;rounded=0;exitX=0.5;exitY=1;exitDx=0;exitDy=0;entryX=0.5;entryY=0;entryDx=0;entryDy=0;" parent="1" source="kRHaIRPuTOjawNohXD7s-31" target="kRHaIRPuTOjawNohXD7s-51" edge="1">
          <mxGeometry width="50" height="50" relative="1" as="geometry">
            <mxPoint x="400" y="405" as="sourcePoint" />
            <mxPoint x="144.23076923076928" y="490" as="targetPoint" />
          </mxGeometry>
        </mxCell>
        <mxCell id="kRHaIRPuTOjawNohXD7s-51" value="Voice to Text (Quick Add) could be on the bottom of the Home Screen." style="rounded=1;whiteSpace=wrap;html=1;labelBackgroundColor=#CC6600;fontColor=#FFFFFF;" parent="1" vertex="1">
          <mxGeometry x="110" y="500" width="120" height="60" as="geometry" />
        </mxCell>
        <mxCell id="kRHaIRPuTOjawNohXD7s-52" value="" style="endArrow=classic;html=1;rounded=0;exitX=0.5;exitY=1;exitDx=0;exitDy=0;" parent="1" source="kRHaIRPuTOjawNohXD7s-41" target="kRHaIRPuTOjawNohXD7s-53" edge="1">
          <mxGeometry width="50" height="50" relative="1" as="geometry">
            <mxPoint x="400" y="405" as="sourcePoint" />
            <mxPoint x="450" y="440" as="targetPoint" />
          </mxGeometry>
        </mxCell>
        <mxCell id="kRHaIRPuTOjawNohXD7s-53" value="Upper Body, Lower Body, Arms, Legs, Back, Core, Full-Body, Cardio" style="rounded=1;whiteSpace=wrap;html=1;labelBackgroundColor=#4D9900;fontColor=#FFFFFF;" parent="1" vertex="1">
          <mxGeometry x="400" y="420" width="120" height="70" as="geometry" />
        </mxCell>
        <mxCell id="kRHaIRPuTOjawNohXD7s-54" value="+" style="ellipse;whiteSpace=wrap;html=1;aspect=fixed;fontSize=32;fontColor=#FFFFFF;labelBackgroundColor=#007FFF;" parent="1" vertex="1">
          <mxGeometry x="535" y="420" width="40" height="40" as="geometry" />
        </mxCell>
        <mxCell id="kRHaIRPuTOjawNohXD7s-55" value="-" style="ellipse;whiteSpace=wrap;html=1;aspect=fixed;fontSize=32;fontColor=#FFFFFF;labelBackgroundColor=#007FFF;" parent="1" vertex="1">
          <mxGeometry x="580" y="455" width="40" height="40" as="geometry" />
        </mxCell>
        <mxCell id="kRHaIRPuTOjawNohXD7s-56" value="" style="endArrow=classic;html=1;rounded=0;exitX=0.25;exitY=1;exitDx=0;exitDy=0;entryX=0.5;entryY=0;entryDx=0;entryDy=0;" parent="1" source="kRHaIRPuTOjawNohXD7s-42" target="kRHaIRPuTOjawNohXD7s-54" edge="1">
          <mxGeometry width="50" height="50" relative="1" as="geometry">
            <mxPoint x="400" y="405" as="sourcePoint" />
            <mxPoint x="575" y="415" as="targetPoint" />
          </mxGeometry>
        </mxCell>
        <mxCell id="kRHaIRPuTOjawNohXD7s-57" value="" style="endArrow=classic;html=1;rounded=0;exitX=0.5;exitY=1;exitDx=0;exitDy=0;entryX=0.5;entryY=0;entryDx=0;entryDy=0;" parent="1" source="kRHaIRPuTOjawNohXD7s-42" target="kRHaIRPuTOjawNohXD7s-55" edge="1">
          <mxGeometry width="50" height="50" relative="1" as="geometry">
            <mxPoint x="400" y="405" as="sourcePoint" />
            <mxPoint x="450" y="355" as="targetPoint" />
          </mxGeometry>
        </mxCell>
        <mxCell id="kRHaIRPuTOjawNohXD7s-58" value="Send" style="ellipse;whiteSpace=wrap;html=1;aspect=fixed;fontColor=#FFFFFF;labelBackgroundColor=#007FFF;" parent="1" vertex="1">
          <mxGeometry x="635" y="485" width="40" height="40" as="geometry" />
        </mxCell>
        <mxCell id="kRHaIRPuTOjawNohXD7s-59" value="" style="endArrow=classic;html=1;rounded=0;exitX=0.75;exitY=1;exitDx=0;exitDy=0;entryX=0.5;entryY=0;entryDx=0;entryDy=0;" parent="1" source="kRHaIRPuTOjawNohXD7s-42" target="kRHaIRPuTOjawNohXD7s-58" edge="1">
          <mxGeometry width="50" height="50" relative="1" as="geometry">
            <mxPoint x="400" y="405" as="sourcePoint" />
            <mxPoint x="450" y="355" as="targetPoint" />
          </mxGeometry>
        </mxCell>
        <mxCell id="kRHaIRPuTOjawNohXD7s-60" value="Add by Username or Email" style="rounded=1;whiteSpace=wrap;html=1;fontColor=#FFFFFF;labelBackgroundColor=#007FFF;" parent="1" vertex="1">
          <mxGeometry x="540" y="540" width="120" height="60" as="geometry" />
        </mxCell>
        <mxCell id="kRHaIRPuTOjawNohXD7s-61" value="" style="endArrow=classic;html=1;rounded=0;exitX=0.5;exitY=1;exitDx=0;exitDy=0;entryX=0.5;entryY=0;entryDx=0;entryDy=0;" parent="1" source="kRHaIRPuTOjawNohXD7s-54" target="kRHaIRPuTOjawNohXD7s-60" edge="1">
          <mxGeometry width="50" height="50" relative="1" as="geometry">
            <mxPoint x="400" y="405" as="sourcePoint" />
            <mxPoint x="450" y="355" as="targetPoint" />
          </mxGeometry>
        </mxCell>
        <mxCell id="kRHaIRPuTOjawNohXD7s-63" value="" style="endArrow=classic;html=1;rounded=0;exitX=0.5;exitY=1;exitDx=0;exitDy=0;" parent="1" source="kRHaIRPuTOjawNohXD7s-53" target="kRHaIRPuTOjawNohXD7s-64" edge="1">
          <mxGeometry width="50" height="50" relative="1" as="geometry">
            <mxPoint x="400" y="405" as="sourcePoint" />
            <mxPoint x="460" y="505" as="targetPoint" />
          </mxGeometry>
        </mxCell>
        <mxCell id="kRHaIRPuTOjawNohXD7s-64" value="Start" style="ellipse;whiteSpace=wrap;html=1;aspect=fixed;fontColor=#FFFFFF;labelBackgroundColor=#4D9900;" parent="1" vertex="1">
          <mxGeometry x="442.5" y="510" width="35" height="35" as="geometry" />
        </mxCell>
        <mxCell id="kRHaIRPuTOjawNohXD7s-68" value="Pause/Play" style="ellipse;whiteSpace=wrap;html=1;fontColor=#FFFFFF;labelBackgroundColor=#4D9900;" parent="1" vertex="1">
          <mxGeometry x="425" y="570" width="70" height="35" as="geometry" />
        </mxCell>
        <mxCell id="kRHaIRPuTOjawNohXD7s-69" value="" style="endArrow=classic;html=1;rounded=0;exitX=0.5;exitY=1;exitDx=0;exitDy=0;entryX=0.5;entryY=0;entryDx=0;entryDy=0;" parent="1" source="kRHaIRPuTOjawNohXD7s-64" target="kRHaIRPuTOjawNohXD7s-68" edge="1">
          <mxGeometry width="50" height="50" relative="1" as="geometry">
            <mxPoint x="400" y="405" as="sourcePoint" />
            <mxPoint x="450" y="355" as="targetPoint" />
          </mxGeometry>
        </mxCell>
        <mxCell id="kRHaIRPuTOjawNohXD7s-72" value="Complete" style="ellipse;whiteSpace=wrap;html=1;fontColor=#FFFFFF;labelBackgroundColor=#4D9900;" parent="1" vertex="1">
          <mxGeometry x="372.5" y="620" width="70" height="35" as="geometry" />
        </mxCell>
        <mxCell id="kRHaIRPuTOjawNohXD7s-73" value="Incomplete" style="ellipse;whiteSpace=wrap;html=1;fontColor=#FFFFFF;labelBackgroundColor=#4D9900;" parent="1" vertex="1">
          <mxGeometry x="477.5" y="620" width="70" height="35" as="geometry" />
        </mxCell>
        <mxCell id="kRHaIRPuTOjawNohXD7s-74" value="" style="endArrow=classic;html=1;rounded=0;exitX=0.5;exitY=1;exitDx=0;exitDy=0;entryX=1;entryY=0;entryDx=0;entryDy=0;" parent="1" source="kRHaIRPuTOjawNohXD7s-68" target="kRHaIRPuTOjawNohXD7s-72" edge="1">
          <mxGeometry width="50" height="50" relative="1" as="geometry">
            <mxPoint x="400" y="405" as="sourcePoint" />
            <mxPoint x="450" y="355" as="targetPoint" />
          </mxGeometry>
        </mxCell>
        <mxCell id="kRHaIRPuTOjawNohXD7s-75" value="" style="endArrow=classic;html=1;rounded=0;exitX=0.5;exitY=1;exitDx=0;exitDy=0;entryX=0;entryY=0;entryDx=0;entryDy=0;" parent="1" source="kRHaIRPuTOjawNohXD7s-68" target="kRHaIRPuTOjawNohXD7s-73" edge="1">
          <mxGeometry width="50" height="50" relative="1" as="geometry">
            <mxPoint x="400" y="405" as="sourcePoint" />
            <mxPoint x="450" y="355" as="targetPoint" />
          </mxGeometry>
        </mxCell>
        <mxCell id="kRHaIRPuTOjawNohXD7s-76" value="Back to Home" style="rounded=1;whiteSpace=wrap;html=1;fontColor=#FFFFFF;labelBackgroundColor=#4D9900;" parent="1" vertex="1">
          <mxGeometry x="400" y="675" width="130" height="25" as="geometry" />
        </mxCell>
        <mxCell id="kRHaIRPuTOjawNohXD7s-77" value="" style="endArrow=classic;html=1;rounded=0;exitX=0.5;exitY=1;exitDx=0;exitDy=0;entryX=0.25;entryY=0;entryDx=0;entryDy=0;" parent="1" source="kRHaIRPuTOjawNohXD7s-72" target="kRHaIRPuTOjawNohXD7s-76" edge="1">
          <mxGeometry width="50" height="50" relative="1" as="geometry">
            <mxPoint x="400" y="575" as="sourcePoint" />
            <mxPoint x="450" y="525" as="targetPoint" />
          </mxGeometry>
        </mxCell>
        <mxCell id="kRHaIRPuTOjawNohXD7s-78" value="" style="endArrow=classic;html=1;rounded=0;exitX=0.407;exitY=1.029;exitDx=0;exitDy=0;exitPerimeter=0;entryX=0.75;entryY=0;entryDx=0;entryDy=0;" parent="1" source="kRHaIRPuTOjawNohXD7s-73" target="kRHaIRPuTOjawNohXD7s-76" edge="1">
          <mxGeometry width="50" height="50" relative="1" as="geometry">
            <mxPoint x="400" y="575" as="sourcePoint" />
            <mxPoint x="450" y="525" as="targetPoint" />
          </mxGeometry>
        </mxCell>
        <mxCell id="rZY_2hW5WFeJh-Ct97Wm-1" value="" style="endArrow=classic;html=1;rounded=0;exitX=1;exitY=0.5;exitDx=0;exitDy=0;entryX=0;entryY=0.5;entryDx=0;entryDy=0;" edge="1" parent="1" source="kRHaIRPuTOjawNohXD7s-34" target="kRHaIRPuTOjawNohXD7s-39">
          <mxGeometry width="50" height="50" relative="1" as="geometry">
            <mxPoint x="400" y="405" as="sourcePoint" />
            <mxPoint x="450" y="355" as="targetPoint" />
          </mxGeometry>
        </mxCell>
        <mxCell id="rZY_2hW5WFeJh-Ct97Wm-2" value="" style="endArrow=classic;html=1;rounded=0;exitX=0.5;exitY=1;exitDx=0;exitDy=0;entryX=0.5;entryY=0;entryDx=0;entryDy=0;" edge="1" parent="1" source="kRHaIRPuTOjawNohXD7s-11" target="kRHaIRPuTOjawNohXD7s-28">
          <mxGeometry width="50" height="50" relative="1" as="geometry">
            <mxPoint x="400" y="405" as="sourcePoint" />
            <mxPoint x="450" y="355" as="targetPoint" />
          </mxGeometry>
        </mxCell>
        <mxCell id="rZY_2hW5WFeJh-Ct97Wm-3" value="" style="endArrow=classic;html=1;rounded=0;exitX=0.25;exitY=1;exitDx=0;exitDy=0;entryX=0.25;entryY=0;entryDx=0;entryDy=0;" edge="1" parent="1" source="kRHaIRPuTOjawNohXD7s-28" target="rZY_2hW5WFeJh-Ct97Wm-4">
          <mxGeometry width="50" height="50" relative="1" as="geometry">
            <mxPoint x="400" y="405" as="sourcePoint" />
            <mxPoint x="60" y="580" as="targetPoint" />
          </mxGeometry>
        </mxCell>
        <mxCell id="rZY_2hW5WFeJh-Ct97Wm-4" value="user can add their own categories, or we can preset some such as &quot;Cardio, Strength, Flexibility, Sport, Leisure, Add More&quot;" style="rounded=1;whiteSpace=wrap;html=1;labelBackgroundColor=#FF3333;fontColor=#FFFFFF;" vertex="1" parent="1">
          <mxGeometry x="35" y="590" width="125" height="115" as="geometry" />
        </mxCell>
        <mxCell id="rZY_2hW5WFeJh-Ct97Wm-5" value="" style="endArrow=classic;html=1;rounded=0;exitX=1.008;exitY=0.313;exitDx=0;exitDy=0;exitPerimeter=0;entryX=0;entryY=0.75;entryDx=0;entryDy=0;" edge="1" parent="1" source="rZY_2hW5WFeJh-Ct97Wm-4" target="kRHaIRPuTOjawNohXD7s-39">
          <mxGeometry width="50" height="50" relative="1" as="geometry">
            <mxPoint x="400" y="405" as="sourcePoint" />
            <mxPoint x="450" y="355" as="targetPoint" />
            <Array as="points">
              <mxPoint x="240" y="626" />
              <mxPoint x="245" y="420" />
            </Array>
          </mxGeometry>
        </mxCell>
        <mxCell id="rZY_2hW5WFeJh-Ct97Wm-6" value="Change Profile Picture, Change Username, Change Email, Change Password, Light/Dark mode, Delete Account" style="rounded=1;whiteSpace=wrap;html=1;fontColor=#FFFFFF;labelBackgroundColor=#B266FF;" vertex="1" parent="1">
          <mxGeometry x="695" y="460" width="130" height="95" as="geometry" />
        </mxCell>
        <mxCell id="rZY_2hW5WFeJh-Ct97Wm-7" value="" style="endArrow=classic;html=1;rounded=0;exitX=0.75;exitY=1;exitDx=0;exitDy=0;entryX=0.25;entryY=0;entryDx=0;entryDy=0;" edge="1" parent="1" source="kRHaIRPuTOjawNohXD7s-44" target="rZY_2hW5WFeJh-Ct97Wm-6">
          <mxGeometry width="50" height="50" relative="1" as="geometry">
            <mxPoint x="400" y="405" as="sourcePoint" />
            <mxPoint x="450" y="355" as="targetPoint" />
          </mxGeometry>
        </mxCell>
      </root>
    </mxGraphModel>
  </diagram>
</mxfile>
